<svg xmlns="http://www.w3.org/2000/svg" xmlns:xlink="http://www.w3.org/1999/xlink" width="500" zoomAndPan="magnify" viewBox="0 0 375 374.999991" height="500" preserveAspectRatio="xMidYMid meet" version="1.0"><defs><g/><clipPath id="b1c1819c7b"><path d="M 96.933594 43.015625 L 278.433594 43.015625 L 278.433594 223.015625 L 96.933594 223.015625 Z M 96.933594 43.015625 " clip-rule="nonzero"/></clipPath></defs><g clip-path="url(#b1c1819c7b)"><path fill="#ffbd59" d="M 278.011719 192.382812 L 232.753906 192.382812 C 232.753906 179.890625 227.679688 168.574219 219.503906 160.378906 C 211.308594 152.183594 199.992188 147.128906 187.496094 147.128906 C 175.003906 147.128906 163.6875 152.183594 155.492188 160.378906 C 147.316406 168.574219 142.242188 179.890625 142.242188 192.382812 L 96.984375 192.382812 L 166.65625 43.015625 L 208.339844 43.015625 Z M 187.503906 161.78125 C 170.597656 161.78125 156.894531 175.484375 156.894531 192.390625 C 156.894531 209.296875 170.597656 223.003906 187.503906 223.003906 C 204.410156 223.003906 218.117188 209.296875 218.117188 192.390625 C 218.117188 175.484375 204.410156 161.78125 187.503906 161.78125 Z M 187.503906 161.78125 " fill-opacity="1" fill-rule="nonzero"/></g><g fill="#737373" fill-opacity="1"><g transform="translate(95.186826, 273.844965)"><g><path d="M 8.59375 -32.15625 L 17.765625 -32.15625 L 25.78125 0 L 18.671875 0 L 17.109375 -6.90625 L 9.25 -6.90625 L 7.734375 0 L 0.578125 0 Z M 13.15625 -24.46875 L 10.53125 -12.671875 L 15.796875 -12.671875 Z M 13.15625 -24.46875 "/></g></g></g><g fill="#737373" fill-opacity="1"><g transform="translate(126.605415, 273.844965)"><g><path d="M 14.3125 0.53125 C 9.945312 0.53125 6.738281 -0.707031 4.6875 -3.1875 C 2.632812 -5.664062 1.609375 -9.675781 1.609375 -15.21875 L 1.609375 -16.859375 C 1.609375 -22.421875 2.617188 -26.4375 4.640625 -28.90625 C 6.671875 -31.375 9.757812 -32.609375 13.90625 -32.609375 C 17.738281 -32.609375 20.640625 -31.738281 22.609375 -30 C 24.585938 -28.257812 25.578125 -25.390625 25.578125 -21.390625 L 25.578125 -19.90625 L 18.921875 -19.90625 C 18.921875 -22.09375 18.609375 -23.796875 17.984375 -25.015625 C 17.367188 -26.242188 16.128906 -26.859375 14.265625 -26.859375 L 13.90625 -26.859375 C 12.445312 -26.859375 11.3125 -26.472656 10.5 -25.703125 C 9.695312 -24.929688 9.144531 -23.796875 8.84375 -22.296875 C 8.539062 -20.804688 8.390625 -18.992188 8.390625 -16.859375 L 8.390625 -15.21875 C 8.390625 -13.082031 8.546875 -11.269531 8.859375 -9.78125 C 9.171875 -8.300781 9.738281 -7.171875 10.5625 -6.390625 C 11.382812 -5.609375 12.578125 -5.21875 14.140625 -5.21875 L 14.515625 -5.21875 C 15.472656 -5.21875 16.316406 -5.332031 17.046875 -5.5625 C 17.773438 -5.800781 18.382812 -6.097656 18.875 -6.453125 L 18.875 -11.59375 L 14.640625 -11.59375 L 14.640625 -17.359375 L 25.53125 -17.359375 L 25.53125 -3.203125 C 24.351562 -2.222656 22.882812 -1.351562 21.125 -0.59375 C 19.375 0.15625 17.101562 0.53125 14.3125 0.53125 Z M 14.3125 0.53125 "/></g></g></g><g fill="#737373" fill-opacity="1"><g transform="translate(159.339897, 273.844965)"><g><path d="M 2.296875 -32.078125 L 21.921875 -32.078125 L 21.921875 -26.3125 L 8.96875 -26.3125 L 8.96875 -19.25 L 19.859375 -19.25 L 19.859375 -13.484375 L 8.96875 -13.484375 L 8.96875 -5.75 L 21.921875 -5.75 L 21.921875 0 L 2.296875 0 Z M 2.296875 -32.078125 "/></g></g></g><g fill="#737373" fill-opacity="1"><g transform="translate(187.962207, 273.844965)"><g><path d="M 25.78125 -32.078125 L 25.78125 0 L 18.75 0 L 8.390625 -19.90625 L 8.59375 -13.453125 L 8.59375 0 L 2.296875 0 L 2.296875 -32.078125 L 9.328125 -32.078125 L 19.65625 -12.171875 L 19.453125 -18.625 L 19.453125 -32.078125 Z M 25.78125 -32.078125 "/></g></g></g><g fill="#737373" fill-opacity="1"><g transform="translate(221.107917, 273.844965)"><g><path d="M 25.65625 -15.21875 C 25.65625 -11.519531 25.1875 -8.554688 24.25 -6.328125 C 23.320312 -4.109375 21.863281 -2.5 19.875 -1.5 C 17.894531 -0.5 15.3125 0 12.125 0 L 2.296875 0 L 2.296875 -32.078125 L 12.125 -32.078125 C 15.3125 -32.078125 17.894531 -31.582031 19.875 -30.59375 C 21.863281 -29.601562 23.320312 -27.988281 24.25 -25.75 C 25.1875 -23.519531 25.65625 -20.554688 25.65625 -16.859375 Z M 8.96875 -5.75 L 11.765625 -5.75 C 13.628906 -5.75 15.070312 -6.09375 16.09375 -6.78125 C 17.125 -7.46875 17.84375 -8.507812 18.25 -9.90625 C 18.664062 -11.3125 18.875 -13.082031 18.875 -15.21875 L 18.875 -16.859375 C 18.875 -18.992188 18.664062 -20.757812 18.25 -22.15625 C 17.84375 -23.5625 17.125 -24.601562 16.09375 -25.28125 C 15.070312 -25.96875 13.628906 -26.3125 11.765625 -26.3125 L 8.96875 -26.3125 Z M 8.96875 -5.75 "/></g></g></g><g fill="#737373" fill-opacity="1"><g transform="translate(253.431193, 273.844965)"><g><path d="M 8.59375 -32.15625 L 17.765625 -32.15625 L 25.78125 0 L 18.671875 0 L 17.109375 -6.90625 L 9.25 -6.90625 L 7.734375 0 L 0.578125 0 Z M 13.15625 -24.46875 L 10.53125 -12.671875 L 15.796875 -12.671875 Z M 13.15625 -24.46875 "/></g></g></g><g fill="#a6a6a6" fill-opacity="1"><g transform="translate(92.192015, 298.967594)"><g><path d="M 7.375 -4.46875 L 7.375 0 L 4.34375 0 L 4.34375 -4.46875 L 0.15625 -14.59375 L 3.46875 -14.59375 L 5.859375 -8.21875 L 8.234375 -14.59375 L 11.546875 -14.59375 Z M 7.375 -4.46875 "/></g></g></g><g fill="#a6a6a6" fill-opacity="1"><g transform="translate(114.516274, 298.967594)"><g><path d="M 6.296875 0.25 C 4.410156 0.25 3.007812 -0.3125 2.09375 -1.4375 C 1.1875 -2.570312 0.734375 -4.398438 0.734375 -6.921875 L 0.734375 -7.671875 C 0.734375 -10.203125 1.1875 -12.03125 2.09375 -13.15625 C 3.007812 -14.28125 4.410156 -14.84375 6.296875 -14.84375 C 8.191406 -14.84375 9.59375 -14.28125 10.5 -13.15625 C 11.414062 -12.03125 11.875 -10.203125 11.875 -7.671875 L 11.875 -6.921875 C 11.875 -4.398438 11.414062 -2.570312 10.5 -1.4375 C 9.59375 -0.3125 8.191406 0.25 6.296875 0.25 Z M 6.21875 -2.375 L 6.390625 -2.375 C 7.316406 -2.375 7.945312 -2.765625 8.28125 -3.546875 C 8.613281 -4.335938 8.78125 -5.460938 8.78125 -6.921875 L 8.78125 -7.671875 C 8.78125 -9.128906 8.613281 -10.25 8.28125 -11.03125 C 7.945312 -11.820312 7.316406 -12.21875 6.390625 -12.21875 L 6.21875 -12.21875 C 5.28125 -12.21875 4.640625 -11.820312 4.296875 -11.03125 C 3.960938 -10.25 3.796875 -9.128906 3.796875 -7.671875 L 3.796875 -6.921875 C 3.796875 -5.460938 3.960938 -4.335938 4.296875 -3.546875 C 4.640625 -2.765625 5.28125 -2.375 6.21875 -2.375 Z M 6.21875 -2.375 "/></g></g></g><g fill="#a6a6a6" fill-opacity="1"><g transform="translate(137.738494, 298.967594)"><g><path d="M 6.203125 0.25 C 4.878906 0.25 3.832031 0.0664062 3.0625 -0.296875 C 2.300781 -0.671875 1.757812 -1.21875 1.4375 -1.9375 C 1.113281 -2.664062 0.953125 -3.5625 0.953125 -4.625 L 0.953125 -14.59375 L 3.984375 -14.59375 L 3.984375 -4.71875 C 3.984375 -3.945312 4.132812 -3.363281 4.4375 -2.96875 C 4.75 -2.570312 5.335938 -2.375 6.203125 -2.375 C 7.054688 -2.375 7.640625 -2.570312 7.953125 -2.96875 C 8.265625 -3.363281 8.421875 -3.945312 8.421875 -4.71875 L 8.421875 -14.59375 L 11.453125 -14.59375 L 11.453125 -4.625 C 11.453125 -3.5625 11.289062 -2.664062 10.96875 -1.9375 C 10.644531 -1.21875 10.097656 -0.671875 9.328125 -0.296875 C 8.566406 0.0664062 7.523438 0.25 6.203125 0.25 Z M 6.203125 0.25 "/></g></g></g><g fill="#a6a6a6" fill-opacity="1"><g transform="translate(160.773648, 298.967594)"><g><path d="M 4.078125 -5.234375 L 4.078125 0 L 1.046875 0 L 1.046875 -14.59375 L 5.84375 -14.59375 C 6.4375 -14.59375 7.03125 -14.535156 7.625 -14.421875 C 8.21875 -14.316406 8.765625 -14.109375 9.265625 -13.796875 C 9.765625 -13.492188 10.160156 -13.046875 10.453125 -12.453125 C 10.753906 -11.859375 10.90625 -11.078125 10.90625 -10.109375 L 10.90625 -9.734375 C 10.90625 -8.554688 10.6875 -7.648438 10.25 -7.015625 C 9.820312 -6.390625 9.273438 -5.941406 8.609375 -5.671875 L 10.90625 0 L 7.640625 0 L 5.640625 -5.234375 Z M 4.078125 -7.859375 L 5.96875 -7.859375 C 6.25 -7.859375 6.53125 -7.90625 6.8125 -8 C 7.101562 -8.101562 7.347656 -8.296875 7.546875 -8.578125 C 7.742188 -8.859375 7.84375 -9.273438 7.84375 -9.828125 L 7.84375 -10.015625 C 7.84375 -10.566406 7.742188 -10.984375 7.546875 -11.265625 C 7.347656 -11.546875 7.101562 -11.734375 6.8125 -11.828125 C 6.53125 -11.929688 6.25 -11.984375 5.96875 -11.984375 L 4.078125 -11.984375 Z M 4.078125 -7.859375 "/></g></g></g><g fill="#a6a6a6" fill-opacity="1"><g transform="translate(183.060483, 298.967594)"><g/></g></g><g fill="#a6a6a6" fill-opacity="1"><g transform="translate(197.433943, 298.967594)"><g><path d="M 10.875 0.03125 L 8.765625 -11.140625 L 6.640625 0.03125 L 2.765625 0.03125 L 0.359375 -14.59375 L 3.515625 -14.59375 L 4.921875 -4.09375 L 6.890625 -14.59375 L 10.65625 -14.59375 L 12.609375 -4.09375 L 14.015625 -14.59375 L 17.1875 -14.59375 L 14.765625 0.03125 Z M 10.875 0.03125 "/></g></g></g><g fill="#a6a6a6" fill-opacity="1"><g transform="translate(225.595, 298.967594)"><g><path d="M 6.296875 0.25 C 4.410156 0.25 3.007812 -0.3125 2.09375 -1.4375 C 1.1875 -2.570312 0.734375 -4.398438 0.734375 -6.921875 L 0.734375 -7.671875 C 0.734375 -10.203125 1.1875 -12.03125 2.09375 -13.15625 C 3.007812 -14.28125 4.410156 -14.84375 6.296875 -14.84375 C 8.191406 -14.84375 9.59375 -14.28125 10.5 -13.15625 C 11.414062 -12.03125 11.875 -10.203125 11.875 -7.671875 L 11.875 -6.921875 C 11.875 -4.398438 11.414062 -2.570312 10.5 -1.4375 C 9.59375 -0.3125 8.191406 0.25 6.296875 0.25 Z M 6.21875 -2.375 L 6.390625 -2.375 C 7.316406 -2.375 7.945312 -2.765625 8.28125 -3.546875 C 8.613281 -4.335938 8.78125 -5.460938 8.78125 -6.921875 L 8.78125 -7.671875 C 8.78125 -9.128906 8.613281 -10.25 8.28125 -11.03125 C 7.945312 -11.820312 7.316406 -12.21875 6.390625 -12.21875 L 6.21875 -12.21875 C 5.28125 -12.21875 4.640625 -11.820312 4.296875 -11.03125 C 3.960938 -10.25 3.796875 -9.128906 3.796875 -7.671875 L 3.796875 -6.921875 C 3.796875 -5.460938 3.960938 -4.335938 4.296875 -3.546875 C 4.640625 -2.765625 5.28125 -2.375 6.21875 -2.375 Z M 6.21875 -2.375 "/></g></g></g><g fill="#a6a6a6" fill-opacity="1"><g transform="translate(248.817217, 298.967594)"><g><path d="M 4.078125 -5.234375 L 4.078125 0 L 1.046875 0 L 1.046875 -14.59375 L 5.84375 -14.59375 C 6.4375 -14.59375 7.03125 -14.535156 7.625 -14.421875 C 8.21875 -14.316406 8.765625 -14.109375 9.265625 -13.796875 C 9.765625 -13.492188 10.160156 -13.046875 10.453125 -12.453125 C 10.753906 -11.859375 10.90625 -11.078125 10.90625 -10.109375 L 10.90625 -9.734375 C 10.90625 -8.554688 10.6875 -7.648438 10.25 -7.015625 C 9.820312 -6.390625 9.273438 -5.941406 8.609375 -5.671875 L 10.90625 0 L 7.640625 0 L 5.640625 -5.234375 Z M 4.078125 -7.859375 L 5.96875 -7.859375 C 6.25 -7.859375 6.53125 -7.90625 6.8125 -8 C 7.101562 -8.101562 7.347656 -8.296875 7.546875 -8.578125 C 7.742188 -8.859375 7.84375 -9.273438 7.84375 -9.828125 L 7.84375 -10.015625 C 7.84375 -10.566406 7.742188 -10.984375 7.546875 -11.265625 C 7.347656 -11.546875 7.101562 -11.734375 6.8125 -11.828125 C 6.53125 -11.929688 6.25 -11.984375 5.96875 -11.984375 L 4.078125 -11.984375 Z M 4.078125 -7.859375 "/></g></g></g><g fill="#a6a6a6" fill-opacity="1"><g transform="translate(271.104051, 298.967594)"><g><path d="M 4.078125 -14.59375 L 4.078125 -8.875 L 7.671875 -14.59375 L 11.34375 -14.59375 L 7.25 -8.734375 L 11.34375 0 L 7.96875 0 L 5.3125 -5.96875 L 4.078125 -4.21875 L 4.078125 0 L 1.046875 0 L 1.046875 -14.59375 Z M 4.078125 -14.59375 "/></g></g></g><g fill="#a6a6a6" fill-opacity="1"><g transform="translate(91.048541, 324.496313)"><g><path d="M 3.796875 -6.921875 C 3.796875 -5.953125 3.859375 -5.128906 3.984375 -4.453125 C 4.117188 -3.773438 4.359375 -3.257812 4.703125 -2.90625 C 5.054688 -2.550781 5.5625 -2.375 6.21875 -2.375 L 6.390625 -2.375 C 7.117188 -2.375 7.632812 -2.609375 7.9375 -3.078125 C 8.25 -3.554688 8.40625 -4.191406 8.40625 -4.984375 L 11.4375 -4.984375 L 11.4375 -4.8125 C 11.4375 -3.007812 11 -1.710938 10.125 -0.921875 C 9.25 -0.140625 7.945312 0.25 6.21875 0.25 C 4.320312 0.25 2.929688 -0.3125 2.046875 -1.4375 C 1.171875 -2.570312 0.734375 -4.398438 0.734375 -6.921875 L 0.734375 -7.671875 C 0.734375 -10.203125 1.171875 -12.03125 2.046875 -13.15625 C 2.929688 -14.28125 4.320312 -14.84375 6.21875 -14.84375 C 7.945312 -14.84375 9.25 -14.445312 10.125 -13.65625 C 11 -12.863281 11.4375 -11.554688 11.4375 -9.734375 L 11.4375 -9.0625 L 8.40625 -9.0625 C 8.40625 -10.0625 8.265625 -10.835938 7.984375 -11.390625 C 7.710938 -11.941406 7.179688 -12.21875 6.390625 -12.21875 L 6.21875 -12.21875 C 5.5625 -12.21875 5.054688 -12.039062 4.703125 -11.6875 C 4.359375 -11.34375 4.117188 -10.832031 3.984375 -10.15625 C 3.859375 -9.476562 3.796875 -8.648438 3.796875 -7.671875 Z M 3.796875 -6.921875 "/></g></g></g><g fill="#a6a6a6" fill-opacity="1"><g transform="translate(113.840492, 324.496313)"><g><path d="M 6.296875 0.25 C 4.410156 0.25 3.007812 -0.3125 2.09375 -1.4375 C 1.1875 -2.570312 0.734375 -4.398438 0.734375 -6.921875 L 0.734375 -7.671875 C 0.734375 -10.203125 1.1875 -12.03125 2.09375 -13.15625 C 3.007812 -14.28125 4.410156 -14.84375 6.296875 -14.84375 C 8.191406 -14.84375 9.59375 -14.28125 10.5 -13.15625 C 11.414062 -12.03125 11.875 -10.203125 11.875 -7.671875 L 11.875 -6.921875 C 11.875 -4.398438 11.414062 -2.570312 10.5 -1.4375 C 9.59375 -0.3125 8.191406 0.25 6.296875 0.25 Z M 6.21875 -2.375 L 6.390625 -2.375 C 7.316406 -2.375 7.945312 -2.765625 8.28125 -3.546875 C 8.613281 -4.335938 8.78125 -5.460938 8.78125 -6.921875 L 8.78125 -7.671875 C 8.78125 -9.128906 8.613281 -10.25 8.28125 -11.03125 C 7.945312 -11.820312 7.316406 -12.21875 6.390625 -12.21875 L 6.21875 -12.21875 C 5.28125 -12.21875 4.640625 -11.820312 4.296875 -11.03125 C 3.960938 -10.25 3.796875 -9.128906 3.796875 -7.671875 L 3.796875 -6.921875 C 3.796875 -5.460938 3.960938 -4.335938 4.296875 -3.546875 C 4.640625 -2.765625 5.28125 -2.375 6.21875 -2.375 Z M 6.21875 -2.375 "/></g></g></g><g fill="#a6a6a6" fill-opacity="1"><g transform="translate(137.062712, 324.496313)"><g><path d="M 12.28125 -9.34375 L 9.671875 0 L 6.59375 0 L 3.984375 -9.34375 L 4.078125 -6.421875 L 4.078125 0 L 1.046875 0 L 1.046875 -14.59375 L 5.515625 -14.59375 L 8.140625 -5.265625 L 10.75 -14.59375 L 15.234375 -14.59375 L 15.234375 0 L 12.203125 0 L 12.203125 -6.421875 Z M 12.28125 -9.34375 "/></g></g></g><g fill="#a6a6a6" fill-opacity="1"><g transform="translate(163.95165, 324.496313)"><g><path d="M 4.078125 -5.234375 L 4.078125 0 L 1.046875 0 L 1.046875 -14.59375 L 5.84375 -14.59375 C 6.4375 -14.59375 7.03125 -14.535156 7.625 -14.421875 C 8.21875 -14.316406 8.765625 -14.109375 9.265625 -13.796875 C 9.765625 -13.492188 10.160156 -13.046875 10.453125 -12.453125 C 10.753906 -11.859375 10.90625 -11.078125 10.90625 -10.109375 L 10.90625 -9.734375 C 10.90625 -8.765625 10.753906 -7.984375 10.453125 -7.390625 C 10.160156 -6.796875 9.765625 -6.34375 9.265625 -6.03125 C 8.765625 -5.71875 8.21875 -5.503906 7.625 -5.390625 C 7.03125 -5.285156 6.4375 -5.234375 5.84375 -5.234375 Z M 4.078125 -7.859375 L 5.96875 -7.859375 C 6.25 -7.859375 6.53125 -7.90625 6.8125 -8 C 7.101562 -8.101562 7.347656 -8.296875 7.546875 -8.578125 C 7.742188 -8.859375 7.84375 -9.273438 7.84375 -9.828125 L 7.84375 -10.015625 C 7.84375 -10.566406 7.742188 -10.984375 7.546875 -11.265625 C 7.347656 -11.546875 7.101562 -11.734375 6.8125 -11.828125 C 6.53125 -11.929688 6.25 -11.984375 5.96875 -11.984375 L 4.078125 -11.984375 Z M 4.078125 -7.859375 "/></g></g></g><g fill="#a6a6a6" fill-opacity="1"><g transform="translate(185.976572, 324.496313)"><g><path d="M 3.90625 -14.640625 L 8.09375 -14.640625 L 11.734375 0 L 8.5 0 L 7.78125 -3.140625 L 4.21875 -3.140625 L 3.515625 0 L 0.265625 0 Z M 5.984375 -11.140625 L 4.796875 -5.765625 L 7.1875 -5.765625 Z M 5.984375 -11.140625 "/></g></g></g><g fill="#a6a6a6" fill-opacity="1"><g transform="translate(208.600148, 324.496313)"><g><path d="M 11.734375 -14.59375 L 11.734375 0 L 8.53125 0 L 3.8125 -9.0625 L 3.90625 -6.125 L 3.90625 0 L 1.046875 0 L 1.046875 -14.59375 L 4.25 -14.59375 L 8.953125 -5.546875 L 8.859375 -8.484375 L 8.859375 -14.59375 Z M 11.734375 -14.59375 "/></g></g></g><g fill="#a6a6a6" fill-opacity="1"><g transform="translate(232.009447, 324.496313)"><g><path d="M 4.171875 -14.59375 L 4.171875 0 L 1.140625 0 L 1.140625 -14.59375 Z M 4.171875 -14.59375 "/></g></g></g><g fill="#a6a6a6" fill-opacity="1"><g transform="translate(247.935655, 324.496313)"><g><path d="M 6.296875 0.25 C 4.410156 0.25 3.007812 -0.3125 2.09375 -1.4375 C 1.1875 -2.570312 0.734375 -4.398438 0.734375 -6.921875 L 0.734375 -7.671875 C 0.734375 -10.203125 1.1875 -12.03125 2.09375 -13.15625 C 3.007812 -14.28125 4.410156 -14.84375 6.296875 -14.84375 C 8.191406 -14.84375 9.59375 -14.28125 10.5 -13.15625 C 11.414062 -12.03125 11.875 -10.203125 11.875 -7.671875 L 11.875 -6.921875 C 11.875 -4.398438 11.414062 -2.570312 10.5 -1.4375 C 9.59375 -0.3125 8.191406 0.25 6.296875 0.25 Z M 6.21875 -2.375 L 6.390625 -2.375 C 7.316406 -2.375 7.945312 -2.765625 8.28125 -3.546875 C 8.613281 -4.335938 8.78125 -5.460938 8.78125 -6.921875 L 8.78125 -7.671875 C 8.78125 -9.128906 8.613281 -10.25 8.28125 -11.03125 C 7.945312 -11.820312 7.316406 -12.21875 6.390625 -12.21875 L 6.21875 -12.21875 C 5.28125 -12.21875 4.640625 -11.820312 4.296875 -11.03125 C 3.960938 -10.25 3.796875 -9.128906 3.796875 -7.671875 L 3.796875 -6.921875 C 3.796875 -5.460938 3.960938 -4.335938 4.296875 -3.546875 C 4.640625 -2.765625 5.28125 -2.375 6.21875 -2.375 Z M 6.21875 -2.375 "/></g></g></g><g fill="#a6a6a6" fill-opacity="1"><g transform="translate(271.157871, 324.496313)"><g><path d="M 11.734375 -14.59375 L 11.734375 0 L 8.53125 0 L 3.8125 -9.0625 L 3.90625 -6.125 L 3.90625 0 L 1.046875 0 L 1.046875 -14.59375 L 4.25 -14.59375 L 8.953125 -5.546875 L 8.859375 -8.484375 L 8.859375 -14.59375 Z M 11.734375 -14.59375 "/></g></g></g></svg>